<svg id="Layer_1" data-name="Layer 1" xmlns="http://www.w3.org/2000/svg" viewBox="0 0 16 16"><defs><style>.cls-1{fill:#172a7e;}.cls-2{fill:#4c9df0;}</style></defs><path class="cls-1" d="M7.22,12.84a8.89,8.89,0,0,1-2.2.25c-2.32,0-3.84-1.48-3.84-4.17V7.53C1.18,4.84,2.7,3.35,5,3.35a9.4,9.4,0,0,1,2.2.25c.25.07.35.13.35.38V5.45a.3.3,0,0,1-.32.28h0a14.89,14.89,0,0,0-2-.12c-.75,0-1.36.45-1.36,1.92V8.92c0,1.46.61,1.91,1.36,1.91a14.89,14.89,0,0,0,2-.12h0a.3.3,0,0,1,.32.28v1.47c0,.25-.1.32-.35.38"/><path class="cls-2" d="M7,10a1.06,1.06,0,0,1-.8-1.75l3.5-4a1,1,0,0,1,.78-.36,1.05,1.05,0,0,1,.8.34l3.61,4a1.06,1.06,0,1,1-1.56,1.43L10.53,6.49,7.81,9.63A1,1,0,0,1,7,10"/></svg>